HIERARCHY
ROOT hip
{
	OFFSET 0.000000 0.000000 0.000000 
	CHANNELS 6 Xposition Yposition Zposition Zrotation Yrotation Xrotation
	JOINT abdomen
	{
		OFFSET 0.000000 20.688101 -0.731520 
		CHANNELS 3 Zrotation Xrotation Yrotation
		JOINT chest
		{
			OFFSET 0.000000 11.704300 -0.487680 
			CHANNELS 3 Zrotation Xrotation Yrotation
			JOINT neck
			{
				OFFSET 0.000000 22.189400 -2.194560 
				CHANNELS 3 Zrotation Xrotation Yrotation
				JOINT head
				{
					OFFSET -0.243840 7.071330 1.219200 
					CHANNELS 3 Zrotation Xrotation Yrotation
					JOINT leftEye
					{
						OFFSET 4.145280 8.046740 8.046720 
						CHANNELS 3 Zrotation Xrotation Yrotation
						End Site
						{
							OFFSET 1.000000 0.000000 0.000000 
						}
					}
					JOINT rightEye
					{
						OFFSET -3.657600 8.046740 8.046720 
						CHANNELS 3 Zrotation Xrotation Yrotation
						End Site
						{
							OFFSET 1.000000 0.000000 0.000000 
						}
					}
				}
			}
			JOINT rCollar
			{
				OFFSET -2.682240 19.263399 -4.876800 
				CHANNELS 3 Zrotation Xrotation Yrotation
				JOINT rShldr
				{
					OFFSET -8.778240 -1.950730 1.463040 
					CHANNELS 3 Zrotation Xrotation Yrotation
					JOINT rForeArm
					{
						OFFSET -28.174200 -1.711500 0.487680 
						CHANNELS 3 Zrotation Xrotation Yrotation
						JOINT rHand
						{
							OFFSET -22.587900 0.773209 7.071360 
							CHANNELS 3 Zrotation Xrotation Yrotation
							JOINT rThumb1
							{
								OFFSET -1.219200 -0.487915 3.413760 
								CHANNELS 3 Zrotation Xrotation Yrotation
								JOINT rThumb2
								{
									OFFSET -3.370350 -0.524490 3.413760 
									CHANNELS 3 Zrotation Xrotation Yrotation
									End Site
									{
										OFFSET -1.782710 -1.182140 1.430490 
									}
								}
							}
							JOINT rIndex1
							{
								OFFSET -7.759470 0.938293 5.608320 
								CHANNELS 3 Zrotation Xrotation Yrotation
								JOINT rIndex2
								{
									OFFSET -2.540570 -0.884171 1.565380 
									CHANNELS 3 Zrotation Xrotation Yrotation
									End Site
									{
										OFFSET -1.625190 -0.234802 1.165020 
									}
								}
							}
							JOINT rMid1
							{
								OFFSET -8.247140 1.182130 3.413760 
								CHANNELS 3 Zrotation Xrotation Yrotation
								JOINT rMid2
								{
									OFFSET -3.101650 -0.590103 1.064700 
									CHANNELS 3 Zrotation Xrotation Yrotation
									End Site
									{
										OFFSET -2.485470 -0.328903 0.837420 
									}
								}
							}
							JOINT rRing1
							{
								OFFSET -8.828220 0.546677 1.516780 
								CHANNELS 3 Zrotation Xrotation Yrotation
								JOINT rRing2
								{
									OFFSET -2.609340 -0.819778 -0.019849 
									CHANNELS 3 Zrotation Xrotation Yrotation
									End Site
									{
										OFFSET -2.338420 -0.294052 0.168128 
									}
								}
							}
							JOINT rPinky1
							{
								OFFSET -8.272020 -0.047791 -0.458400 
								CHANNELS 3 Zrotation Xrotation Yrotation
								JOINT rPinky2
								{
									OFFSET -1.827340 -0.647385 -0.700984 
									CHANNELS 3 Zrotation Xrotation Yrotation
									End Site
									{
										OFFSET -1.692250 -0.517670 -0.607171 
									}
								}
							}
						}
					}
				}
			}
			JOINT lCollar
			{
				OFFSET 2.682240 19.263399 -4.876800 
				CHANNELS 3 Zrotation Xrotation Yrotation
				JOINT lShldr
				{
					OFFSET 8.778240 -1.950730 1.463040 
					CHANNELS 3 Zrotation Xrotation Yrotation
					JOINT lForeArm
					{
						OFFSET 28.174200 -1.711500 0.487680 
						CHANNELS 3 Zrotation Xrotation Yrotation
						JOINT lHand
						{
							OFFSET 22.587900 0.773209 7.071360 
							CHANNELS 3 Zrotation Xrotation Yrotation
							JOINT lThumb1
							{
								OFFSET 1.219200 -0.487915 3.413760 
								CHANNELS 3 Zrotation Xrotation Yrotation
								JOINT lThumb2
								{
									OFFSET 3.370350 -0.524490 3.413760 
									CHANNELS 3 Zrotation Xrotation Yrotation
									End Site
									{
										OFFSET 1.782710 -1.182140 1.430490 
									}
								}
							}
							JOINT lIndex1
							{
								OFFSET 7.759470 0.938293 5.608320 
								CHANNELS 3 Zrotation Xrotation Yrotation
								JOINT lIndex2
								{
									OFFSET 2.540570 -0.884171 1.565380 
									CHANNELS 3 Zrotation Xrotation Yrotation
									End Site
									{
										OFFSET 1.625190 -0.234802 1.165020 
									}
								}
							}
							JOINT lMid1
							{
								OFFSET 8.247140 1.182130 3.413760 
								CHANNELS 3 Zrotation Xrotation Yrotation
								JOINT lMid2
								{
									OFFSET 3.101650 -0.590103 1.064700 
									CHANNELS 3 Zrotation Xrotation Yrotation
									End Site
									{
										OFFSET 2.485470 -0.328903 0.837420 
									}
								}
							}
							JOINT lRing1
							{
								OFFSET 8.828220 0.546677 1.516780 
								CHANNELS 3 Zrotation Xrotation Yrotation
								JOINT lRing2
								{
									OFFSET 2.609340 -0.819778 -0.019849 
									CHANNELS 3 Zrotation Xrotation Yrotation
									End Site
									{
										OFFSET 2.338420 -0.294052 0.168128 
									}
								}
							}
							JOINT lPinky1
							{
								OFFSET 8.272020 -0.047791 -0.458400 
								CHANNELS 3 Zrotation Xrotation Yrotation
								JOINT lPinky2
								{
									OFFSET 1.827340 -0.647385 -0.700984 
									CHANNELS 3 Zrotation Xrotation Yrotation
									End Site
									{
										OFFSET 1.692250 -0.517670 -0.607171 
									}
								}
							}
						}
					}
				}
			}
		}
	}
	JOINT rButtock
	{
		OFFSET -8.778240 4.350840 1.219200 
		CHANNELS 3 Zrotation Xrotation Yrotation
		JOINT rThigh
		{
			OFFSET 0.000000 -1.706870 -2.194560 
			CHANNELS 3 Zrotation Xrotation Yrotation
			JOINT rShin
			{
				OFFSET 0.000000 -36.819901 0.731520 
				CHANNELS 3 Zrotation Xrotation Yrotation
				JOINT rFoot
				{
					OFFSET 0.731520 -45.110401 -5.120640 
					CHANNELS 3 Zrotation Xrotation Yrotation
					End Site
					{
						OFFSET -1.122100 -3.699640 12.103000 
					}
				}
			}
		}
	}
	JOINT lButtock
	{
		OFFSET 8.778240 4.350840 1.219200 
		CHANNELS 3 Zrotation Xrotation Yrotation
		JOINT lThigh
		{
			OFFSET 0.000000 -1.706870 -2.194560 
			CHANNELS 3 Zrotation Xrotation Yrotation
			JOINT lShin
			{
				OFFSET 0.000000 -36.819901 0.731520 
				CHANNELS 3 Zrotation Xrotation Yrotation
				JOINT lFoot
				{
					OFFSET -0.731520 -45.110401 -5.120640 
					CHANNELS 3 Zrotation Xrotation Yrotation
					End Site
					{
						OFFSET 1.122100 -3.699640 12.103000 
					}
				}
			}
		}
	}
}
MOTION
Frames: 4
Frame Time: 0.040000
0.000000 0.000000 -190.000000 0.000000 0.000000 0.000000 -0.027200 10.193600 0.250900 -0.010200 -0.011800 0.050000 -10.620100 3.092700 -5.118900 13.464500 -1.293500 -4.747300 0.000000 0.000000 0.000000 0.000000 0.000000 0.000000 0.000000 0.000000 0.000000 53.686600 51.813202 36.655899 -30.265699 -40.340199 70.496902 1.031500 4.506900 5.452900 0.000000 0.000000 0.000000 0.000000 0.000000 0.000000 0.000000 0.000000 0.000000 0.023500 0.013400 0.013600 0.000000 0.000000 0.000000 0.029900 0.008500 0.015800 0.000000 0.000000 0.000000 0.015400 0.020800 0.035200 0.000000 0.000000 0.000000 0.027600 -0.022200 -0.029300 0.000000 0.000000 0.000000 -46.463200 35.650299 -38.411800 28.058701 -28.666599 -72.368301 5.073500 -12.271000 0.688300 0.000000 0.000000 0.000000 0.000000 0.000000 0.000000 0.000000 0.000000 0.000000 -0.013200 0.006100 -0.005200 0.000000 0.000000 0.000000 -0.032900 0.030200 -0.004900 0.000000 0.000000 0.000000 -0.030100 0.004100 -0.032400 0.000000 0.000000 0.000000 -0.003800 -0.018400 0.013800 0.000000 0.000000 0.000000 -1.405400 5.198900 5.524300 1.606900 29.441401 -2.938800 -1.726600 -9.971500 -7.046500 0.000000 0.000000 0.000000 3.306300 -1.634400 -13.864400 4.078300 18.688000 -0.667400 3.802900 -13.852600 5.418300 
0.000000 0.000000 -190.000000 0.000000 0.000000 0.000000 0.358700 10.640800 -0.404400 -0.010200 -0.011800 0.050000 -10.592100 3.130700 -5.062800 13.219800 -0.359500 -4.747300 0.000000 0.000000 0.000000 0.000000 0.000000 0.000000 0.000000 0.000000 0.000000 52.355000 46.281799 29.522900 -29.778299 -39.247898 70.974602 0.902100 5.076700 6.766500 0.000000 0.000000 0.000000 0.000000 0.000000 0.000000 0.000000 0.000000 0.000000 0.023500 0.013400 0.013600 0.000000 0.000000 0.000000 0.029900 0.008500 0.015800 0.000000 0.000000 0.000000 0.015400 0.020800 0.035200 0.000000 0.000000 0.000000 0.027600 -0.022200 -0.029300 0.000000 0.000000 0.000000 -46.121700 33.921299 -35.558998 27.683100 -29.998100 -72.987503 4.647600 -9.499100 0.171000 0.000000 0.000000 0.000000 0.000000 0.000000 0.000000 0.000000 0.000000 0.000000 -0.013200 0.006100 -0.005200 0.000000 0.000000 0.000000 -0.032900 0.030200 -0.004900 0.000000 0.000000 0.000000 -0.030100 0.004100 -0.032400 0.000000 0.000000 0.000000 -0.003800 -0.018400 0.013800 0.000000 0.000000 0.000000 -2.138100 6.935600 5.946400 0.908600 30.784300 -2.893200 -1.670000 -9.736600 -6.840200 0.000000 0.000000 0.000000 2.047800 -3.957900 -16.660299 6.184700 33.189602 -1.016600 3.551200 -13.762200 5.442800 
0.000000 0.000000 -190.000000 0.000000 0.000000 0.000000 0.391200 10.563800 -0.535300 -0.010200 -0.011800 0.050000 -10.610700 3.165800 -5.118600 13.287300 -0.177200 -4.747300 0.000000 0.000000 0.000000 0.000000 0.000000 0.000000 0.000000 0.000000 0.000000 51.778301 35.256199 24.052601 -29.297501 -38.299301 72.485497 0.859600 5.806600 8.256200 0.000000 0.000000 0.000000 0.000000 0.000000 0.000000 0.000000 0.000000 0.000000 0.023500 0.013400 0.013600 0.000000 0.000000 0.000000 0.029900 0.008500 0.015800 0.000000 0.000000 0.000000 0.015400 0.020800 0.035200 0.000000 0.000000 0.000000 0.027600 -0.022200 -0.029300 0.000000 0.000000 0.000000 -46.014500 27.235100 -28.427299 27.246500 -28.989000 -71.056000 3.955600 -8.498900 -0.422800 0.000000 0.000000 0.000000 0.000000 0.000000 0.000000 0.000000 0.000000 0.000000 -0.013200 0.006100 -0.005200 0.000000 0.000000 0.000000 -0.032900 0.030200 -0.004900 0.000000 0.000000 0.000000 -0.030100 0.004100 -0.032400 0.000000 0.000000 0.000000 -0.003800 -0.018400 0.013800 0.000000 0.000000 0.000000 -1.630200 3.857200 6.357000 0.407800 30.290899 -2.957100 -1.648200 -9.711100 -6.997600 0.000000 0.000000 0.000000 5.254300 -4.819500 -17.405300 6.556000 31.392799 -0.960800 3.687500 -14.186000 5.915300 
0.000000 0.000000 -190.000000 0.000000 0.000000 0.000000 0.453100 10.524700 -0.628400 -0.010200 -0.011800 0.050000 -10.641200 3.234600 -5.130700 13.254500 -0.177200 -4.747300 0.000000 0.000000 0.000000 0.000000 0.000000 0.000000 0.000000 0.000000 0.000000 51.484600 26.420300 19.658600 -28.819500 -36.305099 68.097298 0.764600 6.704500 9.571000 0.000000 0.000000 0.000000 0.000000 0.000000 0.000000 0.000000 0.000000 0.000000 0.023500 0.013400 0.013600 0.000000 0.000000 0.000000 0.029900 0.008500 0.015800 0.000000 0.000000 0.000000 0.015400 0.020800 0.035200 0.000000 0.000000 0.000000 0.027600 -0.022200 -0.029300 0.000000 0.000000 0.000000 -46.059200 18.072399 -22.112301 26.856800 -27.803801 -68.847397 3.020300 -7.899800 -1.104300 0.000000 0.000000 0.000000 0.000000 0.000000 0.000000 0.000000 0.000000 0.000000 -0.013200 0.006100 -0.005200 0.000000 0.000000 0.000000 -0.032900 0.030200 -0.004900 0.000000 0.000000 0.000000 -0.030100 0.004100 -0.032400 0.000000 0.000000 0.000000 -0.003800 -0.018400 0.013800 0.000000 0.000000 0.000000 -1.237800 3.993500 6.563700 -0.232800 30.359100 -2.951600 -1.630700 -9.676600 -7.072900 0.000000 0.000000 0.000000 5.501600 -5.563400 -18.402901 6.937700 31.717199 -0.948100 3.702800 -14.182100 6.340900 
